# xmcd
#
# Track frame offsets:
#	150
#	18635
#	34027
#	54699
#	73658
#	110394
#	124894
#	136497
#	154898
#	171795
#	189472
#
# Disc length: 2781 seconds
#
# Revision: 0
# Processed by: cddbd v1.5.2PL0 Copyright (c) Steve Scherf et al.
# Submitted via: EasyCDDAExtractor 16.0.6.1
#
DISCID=9c0adb0b
DTITLE=James Groves Groove Machine - Beale Street Bound
DYEAR=2013
DGENRE=Blues
TTITLE0=James Groves - Beale Street Bound
TTITLE1=William Clarke - Gambling for My Bread
TTITLE2=James Groves - My Stupid Mouth
TTITLE3=Hudson Whittaker - Don't Lie to Me
TTITLE4=James Groves - Under Your Spell
TTITLE5=Bobby Charles - Why Are People Like That
TTITLE6=Kim Wilson - Walkin' to My Baby
TTITLE7=J.J. Cale - Low Down
TTITLE8=McKinley Morganfield - Blow Wind Blow
TTITLE9=James Groves - Can't Find My Baby
TTITLE10=James Groves - Sugar Queen
EXTD=
EXTT0=
EXTT1=
EXTT2=
EXTT3=
EXTT4=
EXTT5=
EXTT6=
EXTT7=
EXTT8=
EXTT9=
EXTT10=
PLAYORDER=
